<svg width="1200" height="720" viewBox="0 0 1200 720" fill="none" xmlns="http://www.w3.org/2000/svg">
  <rect width="1200" height="720" rx="40" fill="#08111B"/>
  <circle cx="1018" cy="112" r="190" fill="#233FFF" fill-opacity="0.22"/>
  <circle cx="162" cy="592" r="160" fill="#74F2CE" fill-opacity="0.16"/>
  <rect x="58" y="58" width="1084" height="604" rx="28" fill="#0F1824" stroke="#223247"/>
  <rect x="104" y="108" width="516" height="224" rx="24" fill="#111E2D" stroke="#2F4764"/>
  <rect x="132" y="138" width="218" height="164" rx="18" fill="#1E2D43"/>
  <path d="M224 188L280 220L224 252V188Z" fill="#74F2CE"/>
  <rect x="376" y="138" width="216" height="34" rx="12" fill="#5F74FF"/>
  <rect x="376" y="190" width="180" height="14" rx="7" fill="#B7C0FF"/>
  <rect x="376" y="218" width="142" height="14" rx="7" fill="#8EA0FF"/>
  <rect x="376" y="246" width="194" height="14" rx="7" fill="#D6DCFF"/>
  <rect x="656" y="108" width="440" height="224" rx="24" fill="#111E2D" stroke="#2F4764"/>
  <rect x="690" y="142" width="372" height="40" rx="14" fill="#18283A"/>
  <rect x="690" y="208" width="112" height="92" rx="18" fill="#74F2CE" fill-opacity="0.16" stroke="#42C9A2"/>
  <rect x="822" y="208" width="112" height="92" rx="18" fill="#5F74FF" fill-opacity="0.18" stroke="#6075FF"/>
  <rect x="954" y="208" width="108" height="92" rx="18" fill="#F0BE66" fill-opacity="0.18" stroke="#D3A657"/>
  <rect x="104" y="376" width="992" height="236" rx="26" fill="#0D1722" stroke="#223247"/>
  <rect x="138" y="414" width="206" height="160" rx="18" fill="#162435"/>
  <rect x="368" y="414" width="206" height="160" rx="18" fill="#162435"/>
  <rect x="598" y="414" width="206" height="160" rx="18" fill="#162435"/>
  <rect x="828" y="414" width="234" height="160" rx="18" fill="#162435"/>
  <rect x="166" y="444" width="150" height="14" rx="7" fill="#74F2CE"/>
  <rect x="166" y="476" width="118" height="12" rx="6" fill="#8AA4C0"/>
  <rect x="166" y="500" width="144" height="12" rx="6" fill="#6B82A0"/>
  <rect x="396" y="444" width="150" height="14" rx="7" fill="#5F74FF"/>
  <rect x="396" y="476" width="126" height="12" rx="6" fill="#A7B2FF"/>
  <rect x="396" y="500" width="158" height="12" rx="6" fill="#C9D0FF"/>
  <rect x="626" y="444" width="150" height="14" rx="7" fill="#F0BE66"/>
  <rect x="626" y="476" width="118" height="12" rx="6" fill="#C2B89F"/>
  <rect x="626" y="500" width="146" height="12" rx="6" fill="#948C7D"/>
  <rect x="856" y="442" width="178" height="16" rx="8" fill="#E8EEF8"/>
  <path d="M858 486H1030" stroke="#74F2CE" stroke-width="12" stroke-linecap="round"/>
  <path d="M858 516H990" stroke="#6075FF" stroke-width="12" stroke-linecap="round"/>
  <path d="M858 546H950" stroke="#F0BE66" stroke-width="12" stroke-linecap="round"/>
</svg>
